HIERARCHY
ROOT base
{
	OFFSET 0.000000 0.000000 0.000000
	CHANNELS 6 Xposition Yposition Zposition Xrotation Yrotation Zrotation
	JOINT torso
	{
		OFFSET 0.000000 0.000000 0.522674
		CHANNELS 3 Xrotation Yrotation Zrotation
		JOINT head
		{
			OFFSET 0.000000 0.000000 0.302405
			CHANNELS 3 Xrotation Yrotation Zrotation
			End Site
			{
				OFFSET 0.000000 0.000000 0.195674
			}
		}
		JOINT arm.upper.left
		{
			OFFSET 0.130449 0.000000 0.254969
			CHANNELS 6 Xposition Yposition Zposition Xrotation Yrotation Zrotation
			JOINT arm.lower.left
			{
				OFFSET 0.002965 0.000000 -0.195674
				CHANNELS 3 Xrotation Yrotation Zrotation
				End Site
				{
					OFFSET 0.008894 0.000000 -0.180850
				}
			}
		}
		JOINT arm.upper.right
		{
			OFFSET -0.130449 0.000000 0.254969
			CHANNELS 6 Xposition Yposition Zposition Xrotation Yrotation Zrotation
			JOINT arm.lower.right
			{
				OFFSET -0.002965 0.000000 -0.195674
				CHANNELS 3 Xrotation Yrotation Zrotation
				End Site
				{
					OFFSET -0.008894 0.000000 -0.180850
				}
			}
		}
	}
	JOINT leg.upper.left
	{
		OFFSET 0.068189 0.000000 0.475238
		CHANNELS 6 Xposition Yposition Zposition Xrotation Yrotation Zrotation
		JOINT leg.lower.left
		{
			OFFSET 0.017789 0.000000 -0.234216
			CHANNELS 3 Xrotation Yrotation Zrotation
			End Site
			{
				OFFSET 0.014824 0.000000 -0.240145
			}
		}
	}
	JOINT leg.upper.right
	{
		OFFSET -0.068189 0.000000 0.475238
		CHANNELS 6 Xposition Yposition Zposition Xrotation Yrotation Zrotation
		JOINT leg.lower.right
		{
			OFFSET -0.017789 0.000000 -0.234216
			CHANNELS 3 Xrotation Yrotation Zrotation
			End Site
			{
				OFFSET -0.014824 0.000000 -0.240145
			}
		}
	}
}
MOTION
Frames: 20
Frame Time: 0.041667
0.000000 0.000000 0.000000 -0.000000 0.000000 -0.000000 -0.000000 0.000000 -0.000000 -0.000000 0.000000 -0.000000 0.130449 0.000000 0.254969 9.599100 -0.739650 0.288664 0.320976 1.815286 0.068315 -0.130449 0.000000 0.254969 -9.837413 0.832079 0.286085 -0.338769 -1.757415 0.073775 0.068189 -0.000000 0.475238 -14.101406 0.453804 -0.981240 2.058760 -0.716955 0.034030 -0.068189 0.000000 0.475238 15.860929 -0.567621 -1.077340 0.316424 0.778772 0.019711 
0.000000 0.000000 0.000000 -0.000000 0.000000 -0.000000 -0.000000 0.000000 -0.000000 -0.000000 0.000000 -0.000000 0.130449 0.000000 0.254969 8.921316 -0.746130 0.269324 0.297880 1.813233 0.063351 -0.130449 0.000000 0.254969 -9.159585 0.832162 0.265688 -0.315671 -1.759413 0.068789 0.068189 0.000000 0.475238 -13.062228 0.439709 -0.910301 1.997766 -0.719147 0.032180 -0.068189 0.000000 0.475238 13.341852 -0.545034 -0.905579 3.852811 0.787422 -0.083490 
0.000000 0.000000 0.000000 -0.000000 0.000000 -0.000000 -0.000000 0.000000 -0.000000 -0.000000 0.000000 -0.000000 0.130449 0.000000 0.254969 6.882415 -0.764233 0.210699 0.228512 1.807076 0.048439 -0.130449 0.000000 0.254969 -7.120567 0.830964 0.204343 -0.246291 -1.765427 0.053820 0.068189 0.000000 0.475238 -9.929457 0.404900 -0.695086 1.814560 -0.725718 0.026611 -0.068189 0.000000 0.475238 6.303971 -0.510396 -0.423212 13.154729 0.780750 -0.355044 
0.000000 0.000000 0.000000 -0.000000 0.000000 -0.000000 -0.000000 0.000000 -0.000000 -0.000000 0.000000 -0.000000 0.130449 0.000000 0.254969 4.126651 -0.785360 0.130510 0.134975 1.798805 0.028320 -0.130449 0.000000 0.254969 -4.364688 0.825881 0.121572 -0.152742 -1.773565 0.033647 0.068189 0.000000 0.475238 -5.681146 0.376503 -0.400853 1.567526 -0.734549 0.019069 -0.068189 0.000000 0.475238 -1.892076 -0.513355 0.138948 22.446884 0.731032 -0.621428 
0.000000 0.000000 0.000000 -0.000000 0.000000 -0.000000 -0.000000 0.000000 -0.000000 -0.000000 0.000000 -0.000000 0.130449 0.000000 0.254969 1.644464 -0.801070 0.057486 0.050868 1.791394 0.010220 -0.130449 0.000000 0.254969 -1.882447 0.817902 0.047305 -0.068631 -1.780911 0.015519 0.068189 0.000000 0.475238 -1.845308 0.369650 -0.134034 1.345396 -0.742462 0.012255 -0.068189 0.000000 0.475238 -7.313784 -0.504570 0.511049 25.974441 0.700902 -0.719928 
0.000000 0.000000 0.000000 -0.000000 0.000000 -0.000000 -0.000000 0.000000 -0.000000 -0.000000 0.000000 -0.000000 0.130449 0.000000 0.254969 -0.918045 -0.813954 -0.018541 -0.035908 1.783777 -0.008467 -0.130449 0.000000 0.254969 0.680078 0.806307 -0.028928 0.018145 -1.788518 -0.003171 0.068189 0.000000 0.475238 2.118110 0.381310 0.141499 1.116234 -0.750599 0.005194 -0.068189 0.000000 0.475238 -10.389606 -0.473484 0.724946 23.918201 0.711111 -0.661518 
0.000000 0.000000 0.000000 -0.000000 0.000000 -0.000000 -0.000000 0.000000 -0.000000 -0.000000 0.000000 -0.000000 0.130449 0.000000 0.254969 -4.081098 -0.825148 -0.113059 -0.143075 1.774410 -0.031560 -0.130449 0.000000 0.254969 3.843184 0.787323 -0.122194 0.125308 -1.797950 -0.026238 0.068189 0.000000 0.475238 7.006778 0.421817 0.479207 0.833238 -0.760606 -0.003572 -0.068189 0.000000 0.475238 -12.539843 -0.459205 0.874486 18.072124 0.729685 -0.494024 
0.000000 0.000000 0.000000 -0.000000 0.000000 -0.000000 -0.000000 0.000000 -0.000000 -0.000000 0.000000 -0.000000 0.130449 0.000000 0.254969 -7.120292 -0.830973 -0.204327 -0.246249 1.765433 -0.053808 -0.130449 -0.000000 0.254969 6.882464 0.764261 -0.210694 0.228470 -1.807072 -0.048427 0.068189 0.000000 0.475238 11.691004 0.487433 0.798456 0.560791 -0.770201 -0.012057 -0.068189 0.000000 0.475238 -13.674390 -0.454518 0.952736 10.471712 0.731129 -0.275079 
0.000000 0.000000 0.000000 -0.000000 0.000000 -0.000000 -0.000000 0.000000 -0.000000 -0.000000 0.000000 -0.000000 0.130449 0.000000 0.254969 -9.165869 -0.832165 -0.265874 -0.315874 1.759397 -0.068830 -0.130449 -0.000000 0.254969 8.927955 0.746097 -0.269513 0.298084 -1.813250 -0.063392 0.068189 0.000000 0.475238 14.832203 0.545948 1.009090 0.376907 -0.776654 -0.017811 -0.068189 -0.000000 0.475238 -14.052859 -0.453724 0.978221 4.435923 0.717331 -0.102081 
0.000000 0.000000 0.000000 -0.000000 0.000000 -0.000000 -0.000000 0.000000 -0.000000 -0.000000 0.000000 -0.000000 0.130449 0.000000 0.254969 -9.837412 -0.832078 -0.286084 -0.338769 1.757416 -0.073772 -0.130449 0.000000 0.254969 9.599103 0.739651 -0.288663 0.320976 -1.815285 -0.068312 0.068189 0.000000 0.475238 15.860927 0.567622 1.077338 0.316425 -0.778773 -0.019708 -0.068189 0.000000 0.475238 -14.101409 -0.453802 0.981238 2.058761 0.716956 -0.034027 
0.000000 0.000000 0.000000 -0.000000 0.000000 -0.000000 -0.000000 0.000000 -0.000000 -0.000000 0.000000 -0.000000 0.130449 0.000000 0.254969 -9.443040 -0.832154 -0.274216 -0.325403 1.758571 -0.070888 -0.130449 0.000000 0.254969 9.204448 0.743422 -0.277408 0.307614 -1.814097 -0.065440 0.068189 0.000000 0.475238 14.290475 0.549967 0.970730 2.583608 -0.785289 0.046257 -0.068189 -0.000000 0.475238 -13.492554 -0.445385 0.939707 1.761428 0.727620 -0.024988 
0.000000 0.000000 0.000000 -0.000000 0.000000 -0.000000 -0.000000 0.000000 -0.000000 -0.000000 0.000000 -0.000000 0.130449 0.000000 0.254969 -8.195840 -0.831860 -0.236686 -0.283110 1.762234 -0.061760 -0.130449 -0.000000 0.254969 7.957424 0.754919 -0.241685 0.265324 -1.810340 -0.056351 0.068189 0.000000 0.475238 9.640955 0.510997 0.653203 9.007302 -0.789620 0.233893 -0.068189 0.000000 0.475238 -11.568538 -0.421655 0.807923 1.601445 0.733338 -0.020104 
0.000000 0.000000 0.000000 -0.000000 0.000000 -0.000000 -0.000000 0.000000 -0.000000 -0.000000 0.000000 -0.000000 0.130449 0.000000 0.254969 -6.227840 -0.829741 -0.177503 -0.216301 1.768034 -0.047348 -0.130449 0.000000 0.254969 5.989741 0.771487 -0.184833 0.198527 -1.804419 -0.041989 0.068189 0.000000 0.475238 3.084232 0.489832 0.202749 17.286323 -0.764336 0.474322 -0.068189 0.000000 0.475238 -8.535239 -0.393213 0.598763 1.536022 0.735672 -0.018102 
0.000000 0.000000 0.000000 -0.000000 0.000000 -0.000000 -0.000000 0.000000 -0.000000 -0.000000 0.000000 -0.000000 0.130449 0.000000 0.254969 -3.980487 -0.824845 -0.110055 -0.139945 1.774682 -0.030885 -0.130449 0.000000 0.254969 3.742529 0.788002 -0.119254 0.122177 -1.797674 -0.025564 0.068189 0.000000 0.475238 -3.120479 0.499140 -0.223383 23.708246 -0.721036 0.656834 -0.068189 0.000000 0.475238 -5.074393 -0.374283 0.358682 1.474736 0.737858 -0.016223 
0.000000 0.000000 0.000000 -0.000000 0.000000 -0.000000 -0.000000 0.000000 -0.000000 -0.000000 0.000000 -0.000000 0.130449 0.000000 0.254969 -1.882448 -0.817901 -0.047304 -0.068631 1.780912 -0.015517 -0.130449 0.000000 0.254969 1.644464 0.801071 -0.057486 0.050868 -1.791393 -0.010217 0.068189 0.000000 0.475238 -7.313785 0.504572 -0.511051 25.974438 -0.700902 0.719931 -0.068189 0.000000 0.475238 -1.845308 -0.369649 0.134032 1.345397 0.742463 -0.012252 
0.000000 0.000000 0.000000 -0.000000 0.000000 -0.000000 -0.000000 0.000000 -0.000000 -0.000000 0.000000 -0.000000 0.130449 0.000000 0.254969 0.529323 -0.807087 0.024460 0.013304 1.788093 0.002131 -0.130449 0.000000 0.254969 -0.767279 0.813279 0.014054 -0.031066 -1.784201 0.007427 0.068189 -0.000000 0.475238 -10.049357 0.495205 -0.699648 23.860748 -0.713810 0.660257 -0.068189 0.000000 0.475238 1.867968 -0.379926 -0.124142 1.129016 0.750146 -0.005585 
0.000000 0.000000 0.000000 -0.000000 0.000000 -0.000000 -0.000000 0.000000 -0.000000 -0.000000 0.000000 -0.000000 0.130449 -0.000000 0.254969 3.660835 -0.788549 0.116850 0.119574 1.797445 0.025007 -0.130449 0.000000 0.254969 -3.898743 0.824629 0.107597 -0.137340 -1.774910 0.030326 0.068189 0.000000 0.475238 -12.137914 0.483830 -0.844091 17.876712 -0.738237 0.489259 -0.068189 0.000000 0.475238 6.695920 -0.418219 -0.457853 0.848358 0.760072 0.003107 
0.000000 0.000000 0.000000 -0.000000 0.000000 -0.000000 -0.000000 0.000000 -0.000000 -0.000000 0.000000 -0.000000 0.130449 0.000000 0.254969 6.763170 -0.765230 0.207247 0.224786 1.806746 0.047638 -0.130449 0.000000 0.254969 -7.001177 0.830824 0.200749 -0.242563 -1.765751 0.053016 0.068189 0.000000 0.475238 -13.416439 0.469943 -0.933042 10.165105 -0.743337 0.266726 -0.068189 0.000000 0.475238 11.483717 -0.483812 -0.784463 0.570478 0.769860 0.011760 
0.000000 0.000000 0.000000 -0.000000 0.000000 -0.000000 -0.000000 0.000000 -0.000000 -0.000000 0.000000 -0.000000 0.130449 0.000000 0.254969 8.892119 -0.746405 0.268488 0.296994 1.813154 0.063161 -0.130449 0.000000 0.254969 -9.130331 0.832159 0.264807 -0.314782 -1.759490 0.068597 0.068189 0.000000 0.475238 -13.976510 0.458247 -0.972370 4.175558 -0.726937 0.094441 -0.068189 0.000000 0.475238 14.769750 -0.544606 -1.004943 0.379765 0.776552 0.017725 
0.000000 0.000000 0.000000 -0.000000 0.000000 -0.000000 -0.000000 0.000000 -0.000000 -0.000000 0.000000 -0.000000 0.130449 0.000000 0.254969 9.599100 -0.739650 0.288664 0.320976 1.815286 0.068315 -0.130449 0.000000 0.254969 -9.837413 0.832079 0.286085 -0.338769 -1.757415 0.073775 0.068189 -0.000000 0.475238 -14.101406 0.453804 -0.981240 2.058760 -0.716955 0.034030 -0.068189 0.000000 0.475238 15.860929 -0.567621 -1.077340 0.316424 0.778772 0.019711 
